# xmcd CD database file
# Copyright (C) 1993-1998 Ti Kan
# 
# Track frame offsets:
#     150
#     11050
#     22412
#     32745
#     43497
#     56925
#     71227
#     85187
#     98067
#     110142
#     122815
#     133517
#     144625
#     156712
#     168382
#     182502
#     194837
#     208482
#     221245
# 
# Disc length: 3104 seconds
# 
# Revision: 1
# Processed by: cddbd v1.4b41PL1 Copyright (c) Steve Scherf et al.
# Submitted via: DiscPlay 4.0.4
# 
DISCID=400c1e13
DTITLE=Ray Charles - Rockin' Chair Blues
DYEAR=1900
DGENRE=
TTITLE0=I wonder who's kissin' her now
TTITLE1=Let's have a ball
TTITLE2=Goin' down slow
TTITLE3=Sitting on top of the world
TTITLE4=Alone in the city
TTITLE5=Blues is middle name
TTITLE6=This love of mine
TTITLE7=Can anyone ask for more
TTITLE8=See see rider
TTITLE9=Rockin' chair blues
TTITLE10=New new
TTITLE11=A sentimental blues
TTITLE12=Can't you see darling
TTITLE13=Tell me baby
TTITLE14=Baby let me hold in your hand
TTITLE15=I wont let you go
TTITLE16=I'm gonna drown myself
TTITLE17=Snow is fallin'
TTITLE18=If I give you my love
EXTD=
EXTT0=
EXTT1=
EXTT2=
EXTT3=
EXTT4=
EXTT5=
EXTT6=
EXTT7=
EXTT8=
EXTT9=
EXTT10=
EXTT11=
EXTT12=
EXTT13=
EXTT14=
EXTT15=
EXTT16=
EXTT17=
EXTT18=
PLAYORDER=
